<svg xmlns="http://www.w3.org/2000/svg" xmlns:xlink="http://www.w3.org/1999/xlink" width="350" zoomAndPan="magnify" viewBox="0 0 262.5 149.999998" height="200" preserveAspectRatio="xMidYMid meet" version="1.0"><defs><g/><clipPath id="642d895e0b"><path d="M 71.292969 2.890625 L 191 2.890625 L 191 100.957031 L 71.292969 100.957031 Z M 71.292969 2.890625 " clip-rule="nonzero"/></clipPath><clipPath id="643ffc0d59"><path d="M 91.253906 17.351562 L 170.601562 17.351562 L 170.601562 86.21875 L 91.253906 86.21875 Z M 91.253906 17.351562 " clip-rule="nonzero"/></clipPath></defs><g fill="#003362" fill-opacity="1"><g transform="translate(46.742135, 129.932036)"><g><path d="M 14.703125 0 L 8.15625 0 C 5.914062 0 4.253906 -0.445312 3.171875 -1.34375 C 2.097656 -2.238281 1.5625 -3.613281 1.5625 -5.46875 L 1.5625 -13.8125 C 1.5625 -15.675781 2.097656 -17.054688 3.171875 -17.953125 C 4.253906 -18.859375 5.914062 -19.3125 8.15625 -19.3125 L 14.703125 -19.3125 C 15.046875 -19.3125 15.289062 -19.234375 15.4375 -19.078125 C 15.59375 -18.929688 15.671875 -18.6875 15.671875 -18.34375 L 15.671875 -15.109375 C 15.671875 -14.765625 15.59375 -14.515625 15.4375 -14.359375 C 15.289062 -14.210938 15.046875 -14.140625 14.703125 -14.140625 L 9.3125 -14.140625 C 8.757812 -14.140625 8.347656 -14.023438 8.078125 -13.796875 C 7.804688 -13.578125 7.671875 -13.242188 7.671875 -12.796875 L 7.671875 -6.40625 C 7.671875 -5.957031 7.804688 -5.628906 8.078125 -5.421875 C 8.347656 -5.222656 8.757812 -5.125 9.3125 -5.125 L 14.703125 -5.125 C 15.046875 -5.125 15.289062 -5.046875 15.4375 -4.890625 C 15.59375 -4.742188 15.671875 -4.5 15.671875 -4.15625 L 15.671875 -0.96875 C 15.671875 -0.625 15.59375 -0.375 15.4375 -0.21875 C 15.289062 -0.0703125 15.046875 0 14.703125 0 Z M 14.703125 0 "/></g></g></g><g fill="#003362" fill-opacity="1"><g transform="translate(63.726011, 129.932036)"><g><path d="M 18.21875 -5.078125 C 18.21875 -4.253906 18.09375 -3.503906 17.84375 -2.828125 C 17.601562 -2.160156 17.175781 -1.585938 16.5625 -1.109375 C 15.945312 -0.640625 15.097656 -0.269531 14.015625 0 C 12.929688 0.269531 11.5625 0.40625 9.90625 0.40625 C 8.238281 0.40625 6.859375 0.269531 5.765625 0 C 4.671875 -0.269531 3.816406 -0.640625 3.203125 -1.109375 C 2.585938 -1.585938 2.160156 -2.160156 1.921875 -2.828125 C 1.679688 -3.503906 1.5625 -4.253906 1.5625 -5.078125 L 1.5625 -14.21875 C 1.5625 -15.039062 1.679688 -15.785156 1.921875 -16.453125 C 2.160156 -17.128906 2.585938 -17.707031 3.203125 -18.1875 C 3.816406 -18.664062 4.671875 -19.039062 5.765625 -19.3125 C 6.859375 -19.582031 8.238281 -19.71875 9.90625 -19.71875 C 11.5625 -19.71875 12.929688 -19.582031 14.015625 -19.3125 C 15.097656 -19.039062 15.945312 -18.664062 16.5625 -18.1875 C 17.175781 -17.707031 17.601562 -17.128906 17.84375 -16.453125 C 18.09375 -15.785156 18.21875 -15.039062 18.21875 -14.21875 Z M 7.640625 -6.03125 C 7.640625 -5.675781 7.773438 -5.378906 8.046875 -5.140625 C 8.316406 -4.898438 8.9375 -4.78125 9.90625 -4.78125 C 10.863281 -4.78125 11.476562 -4.898438 11.75 -5.140625 C 12.019531 -5.378906 12.15625 -5.675781 12.15625 -6.03125 L 12.15625 -13.25 C 12.15625 -13.59375 12.019531 -13.882812 11.75 -14.125 C 11.476562 -14.363281 10.863281 -14.484375 9.90625 -14.484375 C 8.9375 -14.484375 8.316406 -14.363281 8.046875 -14.125 C 7.773438 -13.882812 7.640625 -13.59375 7.640625 -13.25 Z M 7.640625 -6.03125 "/></g></g></g><g fill="#003362" fill-opacity="1"><g transform="translate(83.634441, 129.932036)"><g><path d="M 6.84375 0 L 2.8125 0 C 2.476562 0 2.234375 -0.0703125 2.078125 -0.21875 C 1.921875 -0.375 1.84375 -0.625 1.84375 -0.96875 L 1.84375 -18.34375 C 1.84375 -18.6875 1.921875 -18.929688 2.078125 -19.078125 C 2.234375 -19.234375 2.476562 -19.3125 2.8125 -19.3125 L 5.609375 -19.3125 C 5.941406 -19.3125 6.226562 -19.257812 6.46875 -19.15625 C 6.71875 -19.050781 6.957031 -18.863281 7.1875 -18.59375 L 12.390625 -12.640625 L 12.390625 -18.34375 C 12.390625 -18.6875 12.460938 -18.929688 12.609375 -19.078125 C 12.765625 -19.234375 13.015625 -19.3125 13.359375 -19.3125 L 17.390625 -19.3125 C 17.722656 -19.3125 17.960938 -19.234375 18.109375 -19.078125 C 18.265625 -18.929688 18.34375 -18.6875 18.34375 -18.34375 L 18.34375 -0.96875 C 18.34375 -0.625 18.265625 -0.375 18.109375 -0.21875 C 17.960938 -0.0703125 17.722656 0 17.390625 0 L 13.359375 0 C 13.015625 0 12.765625 -0.0703125 12.609375 -0.21875 C 12.460938 -0.375 12.390625 -0.625 12.390625 -0.96875 L 12.390625 -4.265625 L 7.8125 -9.8125 L 7.8125 -0.96875 C 7.8125 -0.625 7.734375 -0.375 7.578125 -0.21875 C 7.421875 -0.0703125 7.175781 0 6.84375 0 Z M 6.84375 0 "/></g></g></g><g fill="#003362" fill-opacity="1"><g transform="translate(103.972155, 129.932036)"><g><path d="M 16.609375 0 L 8.15625 0 C 5.914062 0 4.253906 -0.445312 3.171875 -1.34375 C 2.097656 -2.238281 1.5625 -3.613281 1.5625 -5.46875 L 1.5625 -13.84375 C 1.5625 -15.707031 2.097656 -17.082031 3.171875 -17.96875 C 4.253906 -18.863281 5.914062 -19.3125 8.15625 -19.3125 L 14.859375 -19.3125 C 15.203125 -19.3125 15.445312 -19.234375 15.59375 -19.078125 C 15.75 -18.929688 15.828125 -18.6875 15.828125 -18.34375 L 15.828125 -15.109375 C 15.828125 -14.765625 15.75 -14.515625 15.59375 -14.359375 C 15.445312 -14.210938 15.203125 -14.140625 14.859375 -14.140625 L 9.28125 -14.140625 C 8.726562 -14.140625 8.316406 -14.023438 8.046875 -13.796875 C 7.773438 -13.578125 7.640625 -13.242188 7.640625 -12.796875 L 7.640625 -6.390625 C 7.640625 -5.941406 7.742188 -5.609375 7.953125 -5.390625 C 8.160156 -5.179688 8.46875 -5.078125 8.875 -5.078125 L 11.484375 -5.078125 L 11.484375 -9.25 C 11.484375 -9.59375 11.554688 -9.835938 11.703125 -9.984375 C 11.859375 -10.140625 12.109375 -10.21875 12.453125 -10.21875 L 16.609375 -10.21875 C 16.941406 -10.21875 17.1875 -10.140625 17.34375 -9.984375 C 17.5 -9.835938 17.578125 -9.59375 17.578125 -9.25 L 17.578125 -0.96875 C 17.578125 -0.625 17.5 -0.375 17.34375 -0.21875 C 17.1875 -0.0703125 16.941406 0 16.609375 0 Z M 16.609375 0 "/></g></g></g><g fill="#003362" fill-opacity="1"><g transform="translate(123.102496, 129.932036)"><g><path d="M 10.96875 0 L 6.625 0 C 6.28125 0 6.03125 -0.0703125 5.875 -0.21875 C 5.726562 -0.375 5.65625 -0.625 5.65625 -0.96875 L 5.65625 -14.140625 L 1.71875 -14.140625 C 1.375 -14.140625 1.125 -14.210938 0.96875 -14.359375 C 0.820312 -14.515625 0.75 -14.765625 0.75 -15.109375 L 0.75 -18.34375 C 0.75 -18.6875 0.820312 -18.929688 0.96875 -19.078125 C 1.125 -19.234375 1.375 -19.3125 1.71875 -19.3125 L 15.875 -19.3125 C 16.21875 -19.3125 16.460938 -19.234375 16.609375 -19.078125 C 16.765625 -18.929688 16.84375 -18.6875 16.84375 -18.34375 L 16.84375 -15.109375 C 16.84375 -14.765625 16.765625 -14.515625 16.609375 -14.359375 C 16.460938 -14.210938 16.21875 -14.140625 15.875 -14.140625 L 11.9375 -14.140625 L 11.9375 -0.96875 C 11.9375 -0.625 11.859375 -0.375 11.703125 -0.21875 C 11.554688 -0.0703125 11.3125 0 10.96875 0 Z M 10.96875 0 "/></g></g></g><g fill="#003362" fill-opacity="1"><g transform="translate(140.83764, 129.932036)"><g><path d="M 14.703125 0 L 8.15625 0 C 5.914062 0 4.253906 -0.445312 3.171875 -1.34375 C 2.097656 -2.238281 1.5625 -3.613281 1.5625 -5.46875 L 1.5625 -13.8125 C 1.5625 -15.675781 2.097656 -17.054688 3.171875 -17.953125 C 4.253906 -18.859375 5.914062 -19.3125 8.15625 -19.3125 L 14.703125 -19.3125 C 15.046875 -19.3125 15.289062 -19.234375 15.4375 -19.078125 C 15.59375 -18.929688 15.671875 -18.6875 15.671875 -18.34375 L 15.671875 -15.109375 C 15.671875 -14.765625 15.59375 -14.515625 15.4375 -14.359375 C 15.289062 -14.210938 15.046875 -14.140625 14.703125 -14.140625 L 9.3125 -14.140625 C 8.757812 -14.140625 8.347656 -14.023438 8.078125 -13.796875 C 7.804688 -13.578125 7.671875 -13.242188 7.671875 -12.796875 L 7.671875 -6.40625 C 7.671875 -5.957031 7.804688 -5.628906 8.078125 -5.421875 C 8.347656 -5.222656 8.757812 -5.125 9.3125 -5.125 L 14.703125 -5.125 C 15.046875 -5.125 15.289062 -5.046875 15.4375 -4.890625 C 15.59375 -4.742188 15.671875 -4.5 15.671875 -4.15625 L 15.671875 -0.96875 C 15.671875 -0.625 15.59375 -0.375 15.4375 -0.21875 C 15.289062 -0.0703125 15.046875 0 14.703125 0 Z M 14.703125 0 "/></g></g></g><g fill="#004aad" fill-opacity="1"><g transform="translate(157.830233, 129.932036)"><g><path d="M 11.859375 0 L 2.8125 0 C 2.476562 0 2.234375 -0.0703125 2.078125 -0.21875 C 1.921875 -0.375 1.84375 -0.625 1.84375 -0.96875 L 1.84375 -18.34375 C 1.84375 -18.6875 1.921875 -18.929688 2.078125 -19.078125 C 2.234375 -19.234375 2.476562 -19.3125 2.8125 -19.3125 L 11.859375 -19.3125 C 14.097656 -19.3125 15.753906 -18.863281 16.828125 -17.96875 C 17.910156 -17.082031 18.453125 -15.707031 18.453125 -13.84375 L 18.453125 -5.46875 C 18.453125 -3.613281 17.910156 -2.238281 16.828125 -1.34375 C 15.753906 -0.445312 14.097656 0 11.859375 0 Z M 7.9375 -14.1875 L 7.9375 -5.078125 L 11.140625 -5.078125 C 11.566406 -5.078125 11.878906 -5.179688 12.078125 -5.390625 C 12.285156 -5.609375 12.390625 -5.941406 12.390625 -6.390625 L 12.390625 -12.90625 C 12.390625 -13.351562 12.285156 -13.675781 12.078125 -13.875 C 11.878906 -14.082031 11.566406 -14.1875 11.140625 -14.1875 Z M 7.9375 -14.1875 "/></g></g></g><g fill="#004aad" fill-opacity="1"><g transform="translate(177.98014, 129.932036)"><g><path d="M 15.265625 0 L 2.8125 0 C 2.476562 0 2.234375 -0.0703125 2.078125 -0.21875 C 1.921875 -0.375 1.84375 -0.625 1.84375 -0.96875 L 1.84375 -18.34375 C 1.84375 -18.6875 1.921875 -18.929688 2.078125 -19.078125 C 2.234375 -19.234375 2.476562 -19.3125 2.8125 -19.3125 L 15.265625 -19.3125 C 15.609375 -19.3125 15.851562 -19.234375 16 -19.078125 C 16.15625 -18.929688 16.234375 -18.6875 16.234375 -18.34375 L 16.234375 -15.21875 C 16.234375 -14.875 16.15625 -14.625 16 -14.46875 C 15.851562 -14.320312 15.609375 -14.25 15.265625 -14.25 L 7.859375 -14.25 L 7.859375 -12.1875 L 13.09375 -12.1875 C 13.4375 -12.1875 13.679688 -12.109375 13.828125 -11.953125 C 13.984375 -11.796875 14.0625 -11.550781 14.0625 -11.21875 L 14.0625 -8.34375 C 14.0625 -8 13.984375 -7.75 13.828125 -7.59375 C 13.679688 -7.445312 13.4375 -7.375 13.09375 -7.375 L 7.859375 -7.375 L 7.859375 -5.078125 L 15.265625 -5.078125 C 15.609375 -5.078125 15.851562 -5 16 -4.84375 C 16.15625 -4.6875 16.234375 -4.441406 16.234375 -4.109375 L 16.234375 -0.96875 C 16.234375 -0.625 16.15625 -0.375 16 -0.21875 C 15.851562 -0.0703125 15.609375 0 15.265625 0 Z M 15.265625 0 "/></g></g></g><g fill="#004aad" fill-opacity="1"><g transform="translate(195.661614, 129.932036)"><g><path d="M 13.28125 0 L 6.296875 0 C 5.960938 0 5.679688 -0.0625 5.453125 -0.1875 C 5.234375 -0.3125 5.0625 -0.546875 4.9375 -0.890625 L 2.3125 -7.453125 C 2.144531 -7.847656 2.007812 -8.191406 1.90625 -8.484375 C 1.800781 -8.785156 1.710938 -9.066406 1.640625 -9.328125 C 1.566406 -9.597656 1.515625 -9.878906 1.484375 -10.171875 C 1.460938 -10.472656 1.453125 -10.835938 1.453125 -11.265625 L 1.453125 -18.34375 C 1.453125 -18.6875 1.523438 -18.929688 1.671875 -19.078125 C 1.828125 -19.234375 2.078125 -19.3125 2.421875 -19.3125 L 6.6875 -19.3125 C 7.019531 -19.3125 7.273438 -19.234375 7.453125 -19.078125 C 7.628906 -18.929688 7.71875 -18.6875 7.71875 -18.34375 L 7.71875 -10.953125 C 7.71875 -10.765625 7.734375 -10.582031 7.765625 -10.40625 C 7.804688 -10.226562 7.863281 -10.039062 7.9375 -9.84375 L 9.203125 -6.09375 C 9.253906 -5.914062 9.316406 -5.796875 9.390625 -5.734375 C 9.460938 -5.671875 9.570312 -5.640625 9.71875 -5.640625 L 10 -5.640625 C 10.144531 -5.640625 10.253906 -5.671875 10.328125 -5.734375 C 10.398438 -5.796875 10.460938 -5.914062 10.515625 -6.09375 L 11.78125 -9.875 C 11.851562 -10.070312 11.90625 -10.257812 11.9375 -10.4375 C 11.96875 -10.613281 11.984375 -10.789062 11.984375 -10.96875 L 11.984375 -18.34375 C 11.984375 -18.6875 12.0625 -18.929688 12.21875 -19.078125 C 12.375 -19.234375 12.617188 -19.3125 12.953125 -19.3125 L 17.171875 -19.3125 C 17.503906 -19.3125 17.75 -19.234375 17.90625 -19.078125 C 18.0625 -18.929688 18.140625 -18.6875 18.140625 -18.34375 L 18.140625 -11.265625 C 18.140625 -10.835938 18.125 -10.472656 18.09375 -10.171875 C 18.070312 -9.878906 18.023438 -9.597656 17.953125 -9.328125 C 17.878906 -9.066406 17.785156 -8.785156 17.671875 -8.484375 C 17.566406 -8.191406 17.4375 -7.847656 17.28125 -7.453125 L 14.640625 -0.890625 C 14.515625 -0.546875 14.34375 -0.3125 14.125 -0.1875 C 13.90625 -0.0625 13.625 0 13.28125 0 Z M 13.28125 0 "/></g></g></g><g fill="#004aad" fill-opacity="1"><g transform="translate(76.905467, 144.653896)"><g><path d="M 1.671875 0 L 0.859375 0 L 0.859375 -5.328125 L 1.671875 -5.328125 Z M 0.78125 -6.78125 C 0.78125 -6.96875 0.828125 -7.101562 0.921875 -7.1875 C 1.015625 -7.269531 1.128906 -7.3125 1.265625 -7.3125 C 1.390625 -7.3125 1.5 -7.265625 1.59375 -7.171875 C 1.695312 -7.085938 1.75 -6.957031 1.75 -6.78125 C 1.75 -6.601562 1.695312 -6.46875 1.59375 -6.375 C 1.5 -6.28125 1.390625 -6.234375 1.265625 -6.234375 C 1.128906 -6.234375 1.015625 -6.28125 0.921875 -6.375 C 0.828125 -6.46875 0.78125 -6.601562 0.78125 -6.78125 Z M 0.78125 -6.78125 "/></g></g></g><g fill="#004aad" fill-opacity="1"><g transform="translate(80.84137, 144.653896)"><g><path d="M 2.578125 -0.5625 C 2.722656 -0.5625 2.859375 -0.570312 2.984375 -0.59375 C 3.117188 -0.613281 3.226562 -0.640625 3.3125 -0.671875 L 3.3125 -0.046875 C 3.21875 -0.00390625 3.085938 0.0234375 2.921875 0.046875 C 2.753906 0.078125 2.601562 0.09375 2.46875 0.09375 C 1.4375 0.09375 0.921875 -0.445312 0.921875 -1.53125 L 0.921875 -4.703125 L 0.15625 -4.703125 L 0.15625 -5.09375 L 0.921875 -5.4375 L 1.25 -6.578125 L 1.71875 -6.578125 L 1.71875 -5.328125 L 3.265625 -5.328125 L 3.265625 -4.703125 L 1.71875 -4.703125 L 1.71875 -1.5625 C 1.71875 -1.238281 1.796875 -0.988281 1.953125 -0.8125 C 2.109375 -0.644531 2.316406 -0.5625 2.578125 -0.5625 Z M 2.578125 -0.5625 "/></g></g></g><g fill="#004aad" fill-opacity="1"><g transform="translate(85.774745, 144.653896)"><g/></g></g><g fill="#004aad" fill-opacity="1"><g transform="translate(89.778767, 144.653896)"><g><path d="M 5.21875 0 L 4.234375 -3.125 C 4.171875 -3.320312 4.054688 -3.757812 3.890625 -4.4375 L 3.84375 -4.4375 C 3.71875 -3.863281 3.609375 -3.425781 3.515625 -3.125 L 2.5 0 L 1.5625 0 L 0.109375 -5.328125 L 0.953125 -5.328125 C 1.296875 -3.992188 1.554688 -2.972656 1.734375 -2.265625 C 1.921875 -1.566406 2.023438 -1.097656 2.046875 -0.859375 L 2.09375 -0.859375 C 2.125 -1.046875 2.179688 -1.285156 2.265625 -1.578125 C 2.347656 -1.867188 2.414062 -2.097656 2.46875 -2.265625 L 3.453125 -5.328125 L 4.328125 -5.328125 L 5.28125 -2.265625 C 5.457031 -1.710938 5.582031 -1.242188 5.65625 -0.859375 L 5.6875 -0.859375 C 5.695312 -0.984375 5.726562 -1.164062 5.78125 -1.40625 C 5.84375 -1.644531 6.1875 -2.953125 6.8125 -5.328125 L 7.640625 -5.328125 L 6.171875 0 Z M 5.21875 0 "/></g></g></g><g fill="#004aad" fill-opacity="1"><g transform="translate(98.945301, 144.653896)"><g><path d="M 5.46875 -2.671875 C 5.46875 -1.804688 5.242188 -1.128906 4.796875 -0.640625 C 4.359375 -0.148438 3.753906 0.09375 2.984375 0.09375 C 2.503906 0.09375 2.078125 -0.015625 1.703125 -0.234375 C 1.335938 -0.460938 1.054688 -0.785156 0.859375 -1.203125 C 0.660156 -1.617188 0.5625 -2.109375 0.5625 -2.671875 C 0.5625 -3.546875 0.773438 -4.222656 1.203125 -4.703125 C 1.640625 -5.191406 2.242188 -5.4375 3.015625 -5.4375 C 3.765625 -5.4375 4.359375 -5.1875 4.796875 -4.6875 C 5.242188 -4.1875 5.46875 -3.515625 5.46875 -2.671875 Z M 1.390625 -2.671875 C 1.390625 -1.992188 1.523438 -1.472656 1.796875 -1.109375 C 2.078125 -0.753906 2.484375 -0.578125 3.015625 -0.578125 C 3.535156 -0.578125 3.929688 -0.753906 4.203125 -1.109375 C 4.484375 -1.460938 4.625 -1.984375 4.625 -2.671875 C 4.625 -3.347656 4.484375 -3.863281 4.203125 -4.21875 C 3.929688 -4.570312 3.53125 -4.75 3 -4.75 C 2.46875 -4.75 2.066406 -4.570312 1.796875 -4.21875 C 1.523438 -3.875 1.390625 -3.359375 1.390625 -2.671875 Z M 1.390625 -2.671875 "/></g></g></g><g fill="#004aad" fill-opacity="1"><g transform="translate(106.379646, 144.653896)"><g><path d="M 3.296875 -5.4375 C 3.523438 -5.4375 3.734375 -5.414062 3.921875 -5.375 L 3.8125 -4.625 C 3.59375 -4.675781 3.398438 -4.703125 3.234375 -4.703125 C 2.796875 -4.703125 2.425781 -4.523438 2.125 -4.171875 C 1.820312 -3.816406 1.671875 -3.378906 1.671875 -2.859375 L 1.671875 0 L 0.859375 0 L 0.859375 -5.328125 L 1.53125 -5.328125 L 1.609375 -4.34375 L 1.65625 -4.34375 C 1.851562 -4.695312 2.09375 -4.96875 2.375 -5.15625 C 2.65625 -5.34375 2.960938 -5.4375 3.296875 -5.4375 Z M 3.296875 -5.4375 "/></g></g></g><g fill="#004aad" fill-opacity="1"><g transform="translate(111.862842, 144.653896)"><g><path d="M 1.65625 -2.734375 C 1.789062 -2.929688 2.003906 -3.191406 2.296875 -3.515625 L 4.015625 -5.328125 L 4.96875 -5.328125 L 2.8125 -3.0625 L 5.125 0 L 4.140625 0 L 2.265625 -2.515625 L 1.65625 -2 L 1.65625 0 L 0.859375 0 L 0.859375 -7.578125 L 1.65625 -7.578125 L 1.65625 -3.5625 C 1.65625 -3.382812 1.640625 -3.109375 1.609375 -2.734375 Z M 1.65625 -2.734375 "/></g></g></g><g fill="#004aad" fill-opacity="1"><g transform="translate(118.508942, 144.653896)"><g><path d="M 4.296875 -1.453125 C 4.296875 -0.953125 4.109375 -0.566406 3.734375 -0.296875 C 3.367188 -0.0351562 2.851562 0.09375 2.1875 0.09375 C 1.476562 0.09375 0.925781 -0.015625 0.53125 -0.234375 L 0.53125 -0.984375 C 0.789062 -0.859375 1.066406 -0.753906 1.359375 -0.671875 C 1.648438 -0.597656 1.929688 -0.5625 2.203125 -0.5625 C 2.628906 -0.5625 2.953125 -0.628906 3.171875 -0.765625 C 3.398438 -0.898438 3.515625 -1.109375 3.515625 -1.390625 C 3.515625 -1.597656 3.425781 -1.773438 3.25 -1.921875 C 3.070312 -2.066406 2.71875 -2.238281 2.1875 -2.4375 C 1.695312 -2.625 1.347656 -2.785156 1.140625 -2.921875 C 0.929688 -3.066406 0.773438 -3.222656 0.671875 -3.390625 C 0.566406 -3.566406 0.515625 -3.78125 0.515625 -4.03125 C 0.515625 -4.457031 0.691406 -4.796875 1.046875 -5.046875 C 1.398438 -5.304688 1.882812 -5.4375 2.5 -5.4375 C 3.070312 -5.4375 3.632812 -5.316406 4.1875 -5.078125 L 3.90625 -4.421875 C 3.363281 -4.640625 2.875 -4.75 2.4375 -4.75 C 2.0625 -4.75 1.773438 -4.6875 1.578125 -4.5625 C 1.378906 -4.445312 1.28125 -4.285156 1.28125 -4.078125 C 1.28125 -3.929688 1.316406 -3.804688 1.390625 -3.703125 C 1.460938 -3.609375 1.578125 -3.515625 1.734375 -3.421875 C 1.898438 -3.335938 2.21875 -3.207031 2.6875 -3.03125 C 3.3125 -2.800781 3.734375 -2.566406 3.953125 -2.328125 C 4.179688 -2.097656 4.296875 -1.804688 4.296875 -1.453125 Z M 4.296875 -1.453125 "/></g></g></g><g fill="#004aad" fill-opacity="1"><g transform="translate(124.678205, 144.653896)"><g/></g></g><g fill="#004aad" fill-opacity="1"><g transform="translate(128.682228, 144.653896)"><g><path d="M 3.34375 -5.421875 C 4.039062 -5.421875 4.582031 -5.179688 4.96875 -4.703125 C 5.351562 -4.222656 5.546875 -3.546875 5.546875 -2.671875 C 5.546875 -1.796875 5.347656 -1.113281 4.953125 -0.625 C 4.566406 -0.144531 4.03125 0.09375 3.34375 0.09375 C 2.988281 0.09375 2.664062 0.03125 2.375 -0.09375 C 2.09375 -0.21875 1.859375 -0.414062 1.671875 -0.6875 L 1.609375 -0.6875 L 1.4375 0 L 0.859375 0 L 0.859375 -7.578125 L 1.671875 -7.578125 L 1.671875 -5.734375 C 1.671875 -5.316406 1.65625 -4.945312 1.625 -4.625 L 1.671875 -4.625 C 2.046875 -5.15625 2.601562 -5.421875 3.34375 -5.421875 Z M 3.21875 -4.75 C 2.664062 -4.75 2.269531 -4.585938 2.03125 -4.265625 C 1.789062 -3.953125 1.671875 -3.421875 1.671875 -2.671875 C 1.671875 -1.921875 1.796875 -1.382812 2.046875 -1.0625 C 2.296875 -0.738281 2.691406 -0.578125 3.234375 -0.578125 C 3.734375 -0.578125 4.101562 -0.757812 4.34375 -1.125 C 4.59375 -1.488281 4.71875 -2.007812 4.71875 -2.6875 C 4.71875 -3.375 4.59375 -3.890625 4.34375 -4.234375 C 4.101562 -4.578125 3.726562 -4.75 3.21875 -4.75 Z M 3.21875 -4.75 "/></g></g></g><g fill="#004aad" fill-opacity="1"><g transform="translate(136.204156, 144.653896)"><g><path d="M 1.609375 -5.328125 L 1.609375 -1.875 C 1.609375 -1.4375 1.707031 -1.109375 1.90625 -0.890625 C 2.101562 -0.679688 2.414062 -0.578125 2.84375 -0.578125 C 3.40625 -0.578125 3.8125 -0.726562 4.0625 -1.03125 C 4.320312 -1.34375 4.453125 -1.84375 4.453125 -2.53125 L 4.453125 -5.328125 L 5.265625 -5.328125 L 5.265625 0 L 4.59375 0 L 4.484375 -0.71875 L 4.4375 -0.71875 C 4.269531 -0.457031 4.039062 -0.253906 3.75 -0.109375 C 3.457031 0.0234375 3.117188 0.09375 2.734375 0.09375 C 2.085938 0.09375 1.601562 -0.0546875 1.28125 -0.359375 C 0.957031 -0.671875 0.796875 -1.164062 0.796875 -1.84375 L 0.796875 -5.328125 Z M 1.609375 -5.328125 "/></g></g></g><g fill="#004aad" fill-opacity="1"><g transform="translate(143.735815, 144.653896)"><g><path d="M 2.578125 -0.5625 C 2.722656 -0.5625 2.859375 -0.570312 2.984375 -0.59375 C 3.117188 -0.613281 3.226562 -0.640625 3.3125 -0.671875 L 3.3125 -0.046875 C 3.21875 -0.00390625 3.085938 0.0234375 2.921875 0.046875 C 2.753906 0.078125 2.601562 0.09375 2.46875 0.09375 C 1.4375 0.09375 0.921875 -0.445312 0.921875 -1.53125 L 0.921875 -4.703125 L 0.15625 -4.703125 L 0.15625 -5.09375 L 0.921875 -5.4375 L 1.25 -6.578125 L 1.71875 -6.578125 L 1.71875 -5.328125 L 3.265625 -5.328125 L 3.265625 -4.703125 L 1.71875 -4.703125 L 1.71875 -1.5625 C 1.71875 -1.238281 1.796875 -0.988281 1.953125 -0.8125 C 2.109375 -0.644531 2.316406 -0.5625 2.578125 -0.5625 Z M 2.578125 -0.5625 "/></g></g></g><g fill="#004aad" fill-opacity="1"><g transform="translate(148.669191, 144.653896)"><g/></g></g><g fill="#004aad" fill-opacity="1"><g transform="translate(152.673214, 144.653896)"><g><path d="M 4.5 0 L 4.5 -3.453125 C 4.5 -3.890625 4.398438 -4.210938 4.203125 -4.421875 C 4.003906 -4.640625 3.695312 -4.75 3.28125 -4.75 C 2.71875 -4.75 2.304688 -4.59375 2.046875 -4.28125 C 1.796875 -3.976562 1.671875 -3.484375 1.671875 -2.796875 L 1.671875 0 L 0.859375 0 L 0.859375 -7.578125 L 1.671875 -7.578125 L 1.671875 -5.28125 C 1.671875 -5.007812 1.65625 -4.78125 1.625 -4.59375 L 1.671875 -4.59375 C 1.828125 -4.851562 2.050781 -5.054688 2.34375 -5.203125 C 2.644531 -5.347656 2.984375 -5.421875 3.359375 -5.421875 C 4.015625 -5.421875 4.503906 -5.265625 4.828125 -4.953125 C 5.148438 -4.648438 5.3125 -4.160156 5.3125 -3.484375 L 5.3125 0 Z M 4.5 0 "/></g></g></g><g fill="#004aad" fill-opacity="1"><g transform="translate(160.204868, 144.653896)"><g><path d="M 5.46875 -2.671875 C 5.46875 -1.804688 5.242188 -1.128906 4.796875 -0.640625 C 4.359375 -0.148438 3.753906 0.09375 2.984375 0.09375 C 2.503906 0.09375 2.078125 -0.015625 1.703125 -0.234375 C 1.335938 -0.460938 1.054688 -0.785156 0.859375 -1.203125 C 0.660156 -1.617188 0.5625 -2.109375 0.5625 -2.671875 C 0.5625 -3.546875 0.773438 -4.222656 1.203125 -4.703125 C 1.640625 -5.191406 2.242188 -5.4375 3.015625 -5.4375 C 3.765625 -5.4375 4.359375 -5.1875 4.796875 -4.6875 C 5.242188 -4.1875 5.46875 -3.515625 5.46875 -2.671875 Z M 1.390625 -2.671875 C 1.390625 -1.992188 1.523438 -1.472656 1.796875 -1.109375 C 2.078125 -0.753906 2.484375 -0.578125 3.015625 -0.578125 C 3.535156 -0.578125 3.929688 -0.753906 4.203125 -1.109375 C 4.484375 -1.460938 4.625 -1.984375 4.625 -2.671875 C 4.625 -3.347656 4.484375 -3.863281 4.203125 -4.21875 C 3.929688 -4.570312 3.53125 -4.75 3 -4.75 C 2.46875 -4.75 2.066406 -4.570312 1.796875 -4.21875 C 1.523438 -3.875 1.390625 -3.359375 1.390625 -2.671875 Z M 1.390625 -2.671875 "/></g></g></g><g fill="#004aad" fill-opacity="1"><g transform="translate(167.639209, 144.653896)"><g><path d="M 5.21875 0 L 4.234375 -3.125 C 4.171875 -3.320312 4.054688 -3.757812 3.890625 -4.4375 L 3.84375 -4.4375 C 3.71875 -3.863281 3.609375 -3.425781 3.515625 -3.125 L 2.5 0 L 1.5625 0 L 0.109375 -5.328125 L 0.953125 -5.328125 C 1.296875 -3.992188 1.554688 -2.972656 1.734375 -2.265625 C 1.921875 -1.566406 2.023438 -1.097656 2.046875 -0.859375 L 2.09375 -0.859375 C 2.125 -1.046875 2.179688 -1.285156 2.265625 -1.578125 C 2.347656 -1.867188 2.414062 -2.097656 2.46875 -2.265625 L 3.453125 -5.328125 L 4.328125 -5.328125 L 5.28125 -2.265625 C 5.457031 -1.710938 5.582031 -1.242188 5.65625 -0.859375 L 5.6875 -0.859375 C 5.695312 -0.984375 5.726562 -1.164062 5.78125 -1.40625 C 5.84375 -1.644531 6.1875 -2.953125 6.8125 -5.328125 L 7.640625 -5.328125 L 6.171875 0 Z M 5.21875 0 "/></g></g></g><g fill="#004aad" fill-opacity="1"><g transform="translate(176.805739, 144.653896)"><g/></g></g><g fill="#004aad" fill-opacity="1"><g transform="translate(180.809757, 144.653896)"><g><path d="M 1.40625 -1.96875 L 1.40625 -2.21875 C 1.40625 -2.601562 1.460938 -2.914062 1.578125 -3.15625 C 1.691406 -3.40625 1.910156 -3.664062 2.234375 -3.9375 C 2.671875 -4.3125 2.945312 -4.59375 3.0625 -4.78125 C 3.175781 -4.96875 3.234375 -5.195312 3.234375 -5.46875 C 3.234375 -5.789062 3.128906 -6.039062 2.921875 -6.21875 C 2.710938 -6.40625 2.40625 -6.5 2 -6.5 C 1.75 -6.5 1.5 -6.46875 1.25 -6.40625 C 1.007812 -6.34375 0.734375 -6.234375 0.421875 -6.078125 L 0.125 -6.734375 C 0.738281 -7.054688 1.378906 -7.21875 2.046875 -7.21875 C 2.671875 -7.21875 3.15625 -7.0625 3.5 -6.75 C 3.84375 -6.445312 4.015625 -6.019531 4.015625 -5.46875 C 4.015625 -5.226562 3.984375 -5.019531 3.921875 -4.84375 C 3.859375 -4.664062 3.765625 -4.492188 3.640625 -4.328125 C 3.515625 -4.171875 3.25 -3.914062 2.84375 -3.5625 C 2.507812 -3.28125 2.289062 -3.046875 2.1875 -2.859375 C 2.082031 -2.671875 2.03125 -2.425781 2.03125 -2.125 L 2.03125 -1.96875 Z M 1.171875 -0.515625 C 1.171875 -0.953125 1.363281 -1.171875 1.75 -1.171875 C 1.9375 -1.171875 2.082031 -1.113281 2.1875 -1 C 2.289062 -0.894531 2.34375 -0.734375 2.34375 -0.515625 C 2.34375 -0.304688 2.289062 -0.144531 2.1875 -0.03125 C 2.082031 0.0820312 1.9375 0.140625 1.75 0.140625 C 1.582031 0.140625 1.441406 0.0859375 1.328125 -0.015625 C 1.222656 -0.117188 1.171875 -0.285156 1.171875 -0.515625 Z M 1.171875 -0.515625 "/></g></g></g><g clip-path="url(#642d895e0b)"><path fill="#003362" d="M 93.003906 58.148438 L 93.003906 79.859375 L 131 100.59375 L 168.992188 79.859375 L 168.992188 58.148438 L 131 78.882812 Z M 131 2.894531 L 71.292969 35.460938 L 131 68.027344 L 179.847656 41.375 L 179.847656 78.882812 L 190.703125 78.882812 L 190.703125 35.460938 Z M 131 2.894531 " fill-opacity="1" fill-rule="nonzero"/></g><g clip-path="url(#643ffc0d59)"><path fill="#003362" d="M 91.253906 51.722656 L 111.121094 86.152344 L 150.878906 86.152344 L 170.742188 51.722656 L 150.878906 17.320312 L 111.121094 17.320312 Z M 157.816406 51.722656 L 144.414062 74.96875 L 117.582031 74.96875 L 104.179688 51.722656 L 117.582031 28.480469 L 125.417969 28.480469 L 125.417969 39.613281 L 124.019531 39.613281 L 117.027344 51.722656 L 124.019531 63.832031 L 138.003906 63.832031 L 144.992188 51.722656 L 138.003906 39.613281 L 136.605469 39.613281 L 136.605469 28.480469 L 144.441406 28.480469 Z M 157.816406 51.722656 " fill-opacity="1" fill-rule="nonzero"/></g></svg>