<svg xmlns="http://www.w3.org/2000/svg" xmlns:xlink="http://www.w3.org/1999/xlink" width="500" zoomAndPan="magnify" viewBox="0 0 375 374.999991" height="500" preserveAspectRatio="xMidYMid meet" version="1.0"><defs><clipPath id="616cd9ae16"><path d="M 0 34.089844 L 375 34.089844 L 375 340.839844 L 0 340.839844 Z M 0 34.089844 " clip-rule="nonzero"/></clipPath><clipPath id="6d9754b666"><path d="M 62.667969 79.035156 L 312.417969 79.035156 L 312.417969 295.785156 L 62.667969 295.785156 Z M 62.667969 79.035156 " clip-rule="nonzero"/></clipPath></defs><g clip-path="url(#616cd9ae16)"><path fill="#003362" d="M 68.1875 207.609375 L 68.1875 275.789062 L 187.5 340.898438 L 306.8125 275.789062 L 306.8125 207.609375 L 187.5 272.71875 Z M 187.5 34.089844 L 0.0078125 136.359375 L 187.5 238.628906 L 340.902344 154.9375 L 340.902344 272.71875 L 374.992188 272.71875 L 374.992188 136.359375 Z M 187.5 34.089844 " fill-opacity="1" fill-rule="nonzero"/></g><g clip-path="url(#6d9754b666)"><path fill="#003362" d="M 62.667969 187.457031 L 125.0625 295.589844 L 249.933594 295.589844 L 312.324219 187.457031 L 249.933594 79.40625 L 125.0625 79.40625 Z M 271.722656 187.457031 L 229.632812 260.457031 L 145.363281 260.457031 L 103.269531 187.457031 L 145.363281 114.457031 L 169.972656 114.457031 L 169.972656 149.425781 L 165.582031 149.425781 L 143.621094 187.457031 L 165.582031 225.488281 L 209.496094 225.488281 L 231.453125 187.457031 L 209.496094 149.425781 L 205.105469 149.425781 L 205.105469 114.457031 L 229.714844 114.457031 Z M 271.722656 187.457031 " fill-opacity="1" fill-rule="nonzero"/></g></svg>